#!OML:ASF F:\VICON\USERDATA\INSTALL\rory3\rory3.ASF
:FULLY-SPECIFIED
:DEGREES
1469
root -7.7218 17.6548 12.4518 139.167 257.294 -140.608
lowerback 8.21293 0.333639 -3.59724
upperback 2.71518 0.0664723 -0.823027
thorax -1.79756 0.000433613 1.1661
lowerneck -11.5492 7.00935 -9.4942
upperneck 47.617 10.1812 3.38904
head 19.8001 1.91631 4.97685
rclavicle 2.23633e-014 -2.06736e-014
rhumerus -38.8629 -17.7697 -77.7116
rradius 29.227
rwrist 6.45235
rhand -14.4965 4.35357
rfingers 7.12502
rthumb 11.6504 -25.3025
lclavicle 2.23633e-014 -2.06736e-014
lhumerus -25.2773 -3.34633 88.4991
lradius 44.1938
lwrist -1.76046
lhand -19.258 26.1316
lfingers 7.12502
lthumb 7.05612 55.994
rfemur -27.4648 -6.85372 13.0273
rtibia 27.2424
rfoot -1.24545 4.51999
rtoes -5.67389
lfemur 11.3171 -1.59268 -32.1516
ltibia 19.2335
lfoot -6.19795 -12.8531
ltoes -7.71475
1470
root -7.60608 17.6509 12.4608 138.57 257.376 -139.82
lowerback 7.98764 0.444475 -3.65963
upperback 2.703 0.218919 -0.873659
thorax -1.69247 0.075367 1.13482
lowerneck -11.6361 7.06088 -9.48672
upperneck 47.7336 10.3032 3.34959
head 19.9016 1.94588 4.99071
rclavicle 1.21259e-014 3.26007e-014
rhumerus -38.4209 -17.6436 -77.8093
rradius 29.343
rwrist 6.33587
rhand -14.6491 4.43227
rfingers 7.12502
rthumb 11.5032 -25.2321
lclavicle 1.21259e-014 3.26007e-014
lhumerus -25.4744 -2.7759 88.2911
lradius 44.0088
lwrist -2.04949
lhand -19.1956 26.2862
lfingers 7.12502
lthumb 7.11631 56.1465
rfemur -27.6618 -6.49066 12.6175
rtibia 26.9006
rfoot -3.17962 3.79243
rtoes -14.294
lfemur 10.9192 -1.27965 -32.285
ltibia 18.9301
lfoot -6.74869 -12.8377
ltoes -8.16596
1471
root -7.49064 17.6516 12.4663 138.162 257.48 -139.349
lowerback 7.92175 0.500187 -3.79063
upperback 2.70599 0.288834 -0.786602
thorax -1.6569 0.109461 1.29184
lowerneck -11.7703 7.14511 -9.70515
upperneck 47.8641 10.558 3.30783
head 19.9971 1.98409 5.06511
rclavicle 1.63997e-014 3.97569e-015
rhumerus -37.9584 -17.4091 -77.7569
rradius 29.4441
rwrist 6.37638
rhand -14.6696 4.53642
rfingers 7.12502
rthumb 11.4834 -25.1291
lclavicle 1.63997e-014 3.97569e-015
lhumerus -25.7328 -1.39653 88.1029
lradius 43.7691
lwrist -2.85474
lhand -18.6616 25.9328
lfingers 7.12502
lthumb 7.63181 55.7751
rfemur -27.7715 -6.24983 12.2775
rtibia 26.7956
rfoot -4.94986 3.06873
rtoes -20.8367
lfemur 10.6802 -0.943005 -32.2641
ltibia 18.5575
lfoot -6.74062 -13.0999
ltoes -6.90699
1472
root -7.37346 17.6526 12.4762 136.789 257.459 -138.172
lowerback 8.18535 0.560077 -4.05752
upperback 2.75078 0.332474 -0.772126
thorax -1.75974 0.130396 1.45134
lowerneck -11.8781 7.24581 -9.92571
upperneck 47.9659 10.8247 3.28911
head 20.0586 2.03336 5.14854
rclavicle 9.93923e-015 7.95139e-015
rhumerus -37.5053 -17.1126 -77.7273
rradius 29.5384
rwrist 6.37793
rhand -14.291 4.94632
rfingers 7.12502
rthumb 11.8485 -24.6985
lclavicle 9.93923e-015 7.95139e-015
lhumerus -26.1069 -0.289417 87.9493
lradius 43.5243
lwrist -3.28676
lhand -18.963 25.9482
lfingers 7.12502
lthumb 7.34084 55.8008
rfemur -27.6554 -6.46671 11.8027
rtibia 26.9355
rfoot -6.12954 3.2458
rtoes -24.3343
lfemur 10.7487 -0.618061 -32.5098
ltibia 18.1445
lfoot -6.72903 -13.2344
ltoes -6.56079
1473
root -7.26174 17.6475 12.4909 133.759 257.231 -135.585
lowerback 8.65327 0.740344 -4.52873
upperback 2.88443 0.495062 -1.01143
thorax -1.89014 0.207179 1.44985
lowerneck -11.9088 7.30045 -9.81143
upperneck 47.9865 10.9126 3.24286
head 20.0878 2.07995 5.12535
rclavicle -5.96354e-015 -3.18055e-015
rhumerus -37.0703 -17.0105 -77.8453
rradius 29.6298
rwrist 6.13547
rhand -13.4594 4.87303
rfingers 7.12502
rthumb 12.6503 -24.7239
lclavicle -5.96354e-015 -3.18055e-015
lhumerus -26.4825 -0.0353319 87.6791
lradius 43.3143
lwrist -3.30997
lhand -19.5834 26.4911
lfingers 7.12502
lthumb 6.74196 56.3638
rfemur -27.2852 -6.64407 10.9062
rtibia 27.306
rfoot -7.17629 3.94875
rtoes -24.6962
lfemur 11.0562 -0.316243 -33.2247
ltibia 17.8176
lfoot -6.77483 -13.1654
ltoes -6.46392
1474
root -7.15815 17.6489 12.5025 131.847 257.108 -133.997
lowerback 8.90344 0.913267 -4.78858
upperback 2.99211 0.678857 -1.17907
thorax -1.92794 0.294475 1.4013
lowerneck -11.8902 7.32954 -9.72695
upperneck 48.0056 10.9378 3.24493
head 20.0991 2.1056 5.11742
rclavicle -2.5842e-015 1.66979e-014
rhumerus -36.6677 -16.9858 -77.8956
rradius 29.749
rwrist 5.86165
rhand -13.111 3.87529
rfingers 7.12502
rthumb 12.9862 -25.7005
lclavicle -2.5842e-015 1.66979e-014
lhumerus -26.8487 -0.0310387 87.4336
lradius 43.0981
lwrist -3.12484
lhand -19.6021 26.3373
lfingers 7.12502
lthumb 6.72398 56.2105
rfemur -27.0312 -6.48137 10.1949
rtibia 27.9126
rfoot -8.34081 4.68857
rtoes -23.5795
lfemur 11.1687 -0.0307861 -33.629
ltibia 17.5877
lfoot -6.67088 -13.3335
ltoes -5.18256
1475
root -7.05786 17.6588 12.5135 131.804 257.216 -134.156
lowerback 8.98175 0.978879 -4.70355
upperback 3.03654 0.770532 -1.12417
thorax -1.93037 0.33912 1.4002
lowerneck -11.8701 7.38476 -9.82844
upperneck 48.0473 11.0481 3.27696
head 20.0978 2.13331 5.16854
rclavicle -3.16068e-014 -7.15625e-015
rhumerus -36.3275 -16.7059 -77.8941
rradius 29.9187
rwrist 5.61988
rhand -13.8939 3.69211
rfingers 7.12502
rthumb 12.2314 -25.9302
lclavicle -3.16068e-014 -7.15625e-015
lhumerus -27.2537 0.181403 87.3078
lradius 42.775
lwrist -2.93071
lhand -19.3845 25.7929
lfingers 7.12502
lthumb 6.93402 55.6593
rfemur -26.849 -6.17887 9.93378
rtibia 28.6741
rfoot -9.47742 5.35163
rtoes -22.5708
lfemur 11.045 0.405914 -33.4455
ltibia 17.5225
lfoot -6.61595 -13.8658
ltoes -4.07142
1476
root -6.95985 17.6693 12.5244 131.397 257.38 -133.977
lowerback 9.05415 1.05399 -4.59273
upperback 3.10363 0.87539 -1.12623
thorax -1.90556 0.389089 1.3244
lowerneck -11.8723 7.46978 -9.83063
upperneck 48.0835 11.1821 3.30054
head 20.1045 2.18652 5.20409
rclavicle -6.26172e-015 1.66979e-014
rhumerus -35.918 -16.3831 -78.0627
rradius 29.9998
rwrist 5.46006
rhand -14.8027 4.07137
rfingers 7.12502
rthumb 11.355 -25.6012
lclavicle -6.26172e-015 1.66979e-014
lhumerus -27.6317 0.504984 87.0357
lradius 42.4034
lwrist -2.93925
lhand -19.1139 25.9258
lfingers 7.12502
lthumb 7.19516 55.7835
rfemur -26.5831 -5.96721 9.70156
rtibia 29.4936
rfoot -10.3673 5.79609
rtoes -22.1275
lfemur 10.7524 1.09444 -33.227
ltibia 17.8149
lfoot -6.64941 -14.4967
ltoes -3.46298
1477
root -6.86384 17.6806 12.5339 130.633 257.624 -133.461
lowerback 9.13456 1.18237 -4.40047
upperback 3.1908 1.05555 -1.18735
thorax -1.86571 0.475953 1.13371
lowerneck -11.9335 7.53464 -9.79774
upperneck 48.15 11.25 3.40687
head 20.1479 2.22703 5.27183
rclavicle -1.26228e-014 -7.15625e-015
rhumerus -35.4696 -16.3288 -78.2118
rradius 30.0082
rwrist 5.48012
rhand -15.1572 4.19266
rfingers 7.12502
rthumb 11.0132 -25.4984
lclavicle -1.26228e-014 -7.15625e-015
lhumerus -27.9726 0.735071 86.6687
lradius 41.9618
lwrist -3.08425
lhand -18.8652 26.1608
lfingers 7.12502
lthumb 7.43529 56.0102
rfemur -26.2715 -6.01366 9.59647
rtibia 30.3372
rfoot -10.9609 5.97428
rtoes -22.6032
lfemur 10.2694 1.39097 -33.1769
ltibia 18.543
lfoot -6.76341 -14.5305
ltoes -3.2537
1478
root -6.7669 17.6989 12.5384 131.316 257.942 -134.179
lowerback 9.02867 1.28136 -4.02038
upperback 3.19798 1.22831 -1.17996
thorax -1.80206 0.56276 0.911849
lowerneck -11.9141 7.53898 -9.74232
upperneck 48.1516 11.1991 3.5118
head 20.1363 2.23544 5.3061
rclavicle -3.16068e-014 5.56597e-015
rhumerus -35.0816 -16.421 -78.2562
rradius 30.0403
rwrist 5.61247
rhand -15.0744 4.29908
rfingers 7.12502
rthumb 11.093 -25.3877
lclavicle -3.16068e-014 5.56597e-015
lhumerus -28.3012 0.951475 86.325
lradius 41.447
lwrist -3.28935
lhand -18.7039 26.0847
lfingers 7.12502
lthumb 7.59099 55.9285
rfemur -26.1574 -6.09913 9.81936
rtibia 31.3117
rfoot -11.5446 5.65511
rtoes -23.413
lfemur 9.46715 1.15571 -32.9905
ltibia 19.4384
lfoot -6.95535 -14.2118
ltoes -3.72105
1479
root -6.66494 17.7222 12.5365 134.226 258.374 -136.839
lowerback 8.6678 1.30616 -3.33409
upperback 3.10071 1.34569 -1.08851
thorax -1.69693 0.6266 0.61553
lowerneck -11.8464 7.51982 -9.65478
upperneck 48.1345 11.0844 3.62968
head 20.105 2.22976 5.32653
rclavicle 2.98177e-014 2.38542e-015
rhumerus -34.7117 -16.3957 -78.3724
rradius 30.1069
rwrist 5.64042
rhand -15.0698 4.28963
rfingers 7.12502
rthumb 11.0974 -25.397
lclavicle 2.98177e-014 2.38542e-015
lhumerus -28.6805 0.821617 86.0254
lradius 41.0303
lwrist -3.23558
lhand -18.2814 26.3141
lfingers 7.12502
lthumb 7.99876 56.1428
rfemur -26.3261 -6.19167 10.468
rtibia 32.4333
rfoot -11.9618 5.57351
rtoes -23.5049
lfemur 8.31018 0.75708 -32.3632
ltibia 20.3378
lfoot -7.02434 -14.0303
ltoes -4.26817
1480
root -6.56204 17.7425 12.5355 135.698 258.564 -138.153
lowerback 8.45131 1.34275 -3.03373
upperback 3.02621 1.43101 -1.0915
thorax -1.65059 0.672274 0.439227
lowerneck -11.832 7.53686 -9.52943
upperneck 48.1448 11.054 3.68308
head 20.1126 2.24856 5.32814
rclavicle 2.87244e-014 -1.11319e-014
rhumerus -34.3322 -16.2582 -78.5773
rradius 30.23
rwrist 5.6163
rhand -15.2498 4.19849
rfingers 7.12502
rthumb 10.9238 -25.4973
lclavicle 2.87244e-014 -1.11319e-014
lhumerus -29.0902 0.774913 85.6978
lradius 40.6175
lwrist -3.14829
lhand -18.1575 26.6173
lfingers 7.12502
lthumb 8.11831 56.4414
rfemur -26.4261 -6.4204 10.7217
rtibia 33.727
rfoot -12.022 6.2649
rtoes -23.0633
lfemur 7.27503 0.551959 -32.098
ltibia 21.2249
lfoot -7.03994 -13.9398
ltoes -4.96652
1481
root -6.46098 17.7665 12.5365 135.756 258.545 -138.176
lowerback 8.42127 1.40713 -3.06437
upperback 2.96198 1.51305 -1.16957
thorax -1.7015 0.71496 0.36752
lowerneck -11.7723 7.55959 -9.45037
upperneck 48.1307 11.0498 3.71038
head 20.0865 2.2695 5.32246
rclavicle 1.5207e-014 1.27222e-014
rhumerus -34.0454 -16.0834 -78.7545
rradius 30.3477
rwrist 5.56612
rhand -15.4241 4.28962
rfingers 7.12502
rthumb 10.7557 -25.415
lclavicle 1.5207e-014 1.27222e-014
lhumerus -29.5255 1.21522 85.24
lradius 40.1305
lwrist -3.83439
lhand -17.57 26.7643
lfingers 7.12502
lthumb 8.6853 56.5656
rfemur -26.366 -6.50641 10.5153
rtibia 35.1869
rfoot -12.1397 6.65455
rtoes -22.3589
lfemur 6.44808 0.122948 -32.2838
ltibia 22.0512
lfoot -6.99254 -13.5412
ltoes -5.65693
